<svg xmlns="http://www.w3.org/2000/svg" width="800" height="450" viewBox="0 0 800 450">
<defs>
<linearGradient id="g-games" x1="0" y1="0" x2="1" y2="1">
<stop offset="0%" stop-color="#ec4899"/>
<stop offset="50%" stop-color="#8b5cf6"/>
<stop offset="100%" stop-color="#3b82f6"/>
</linearGradient>
<radialGradient id="r-games" cx="0.8" cy="0.2" r="0.8">
<stop offset="0%" stop-color="#ffffff" stop-opacity="0.35"/>
<stop offset="60%" stop-color="#ffffff" stop-opacity="0"/>
</radialGradient>
<pattern id="grid-games" width="28" height="28" patternUnits="userSpaceOnUse">
<path d="M 28 0 L 0 0 0 28" fill="none" stroke="#ffffff" stroke-width="1" opacity="0.12"/>
</pattern>
</defs>
<rect width="800" height="450" fill="url(#g-games)"/>
<rect width="800" height="450" fill="url(#r-games)"/>
<rect x="350" y="0" width="450" height="450" fill="url(#grid-games)"/>
<!-- Game Controller Silhouette -->
<g transform="translate(560, 160) scale(1.6)" opacity="0.38" fill="#ffffff">
  <path d="M43.5 12h-27C7.4 12 0 19.4 0 28.5c0 6.6 3.9 12.3 9.6 14.9L14 55.4c1.1 3.2 4.1 5.3 7.5 5.3 4.2 0 7.7-3.2 8-7.4l.7-9.3h5.6l.7 9.3c.3 4.2 3.8 7.4 8 7.4 3.4 0 6.4-2.1 7.5-5.3l4.4-12C62.1 40.8 66 35.1 66 28.5 66 19.4 58.6 12 49.5 12z M21 34h-4v4h-4v-4H9v-4h4v-4h4v4h4v4z M49 37c-1.7 0-3-1.3-3-3s1.3-3 3-3 3 1.3 3 3-1.3 3-3 3z M55 29c-1.7 0-3-1.3-3-3s1.3-3 3-3 3 1.3 3 3-1.3 3-3 3z M43 29c-1.7 0-3-1.3-3-3s1.3-3 3-3 3 1.3 3 3-1.3 3-3 3z M49 21c-1.7 0-3-1.3-3-3s1.3-3 3-3 3 1.3 3 3-1.3 3-3 3z"/>
</g>
<circle cx="650" cy="225" r="140" fill="none" stroke="#ffffff" stroke-opacity="0.25" stroke-width="2"/>
<circle cx="650" cy="225" r="180" fill="none" stroke="#ffffff" stroke-opacity="0.12" stroke-width="1.5" stroke-dasharray="6,6"/>
<circle cx="100" cy="360" r="120" fill="#000000" opacity="0.15"/>
</svg>
